<svg width="38" height="39" viewBox="0 0 38 39" fill="none" xmlns="http://www.w3.org/2000/svg">
<path d="M14.9183 28.7748L24.2445 20.0729C24.4083 19.9201 24.5 19.7151 24.5 19.5016C24.5 19.2882 24.4083 19.0832 24.2445 18.9304L14.9183 10.2252C14.842 10.1539 14.7508 10.0973 14.65 10.0586C14.5492 10.0199 14.441 10 14.3316 10C14.2222 10 14.1139 10.0199 14.0132 10.0586C13.9124 10.0973 13.8212 10.1539 13.7449 10.2252C13.5879 10.3714 13.5 10.5676 13.5 10.772C13.5 10.9763 13.5879 11.1725 13.7449 11.3187L22.515 19.5016L13.7449 27.683C13.5884 27.8291 13.5009 28.0249 13.5009 28.2289C13.5009 28.4328 13.5884 28.6287 13.7449 28.7748C13.8212 28.8461 13.9124 28.9027 14.0132 28.9414C14.1139 28.9801 14.2222 29 14.3316 29C14.441 29 14.5492 28.9801 14.65 28.9414C14.7508 28.9027 14.842 28.8461 14.9183 28.7748Z" fill="white"/>
<rect x="37" y="38.5" width="36" height="38" rx="4.5" transform="rotate(-180 37 38.5)" stroke="white" stroke-opacity="0.87"/>
</svg>
