<svg width="17" height="18" viewBox="0 0 17 18" fill="none" xmlns="http://www.w3.org/2000/svg">
<path d="M15.2617 11.8762C15.0624 12.0754 14.7922 12.1873 14.5105 12.1873C14.2287 12.1873 13.9585 12.0754 13.7593 11.8762L8.49993 6.6168L3.24057 11.8762C3.04018 12.0697 2.77179 12.1768 2.4932 12.1744C2.21462 12.172 1.94813 12.0602 1.75114 11.8632C1.55414 11.6662 1.4424 11.3997 1.43998 11.1212C1.43756 10.8426 1.54465 10.5742 1.73819 10.3738L7.74875 4.36323C7.94799 4.16404 8.2182 4.05215 8.49993 4.05215C8.78167 4.05215 9.05187 4.16404 9.25112 4.36323L15.2617 10.3738C15.4609 10.573 15.5728 10.8432 15.5728 11.125C15.5728 11.4067 15.4609 11.6769 15.2617 11.8762Z" fill="white"/>
</svg>
