<svg width="38" height="39" viewBox="0 0 38 39" fill="none" xmlns="http://www.w3.org/2000/svg">
<path d="M23.0817 28.7748L13.7555 20.0729C13.5917 19.9201 13.5 19.7151 13.5 19.5016C13.5 19.2882 13.5917 19.0832 13.7555 18.9304L23.0817 10.2252C23.158 10.1539 23.2492 10.0973 23.35 10.0586C23.4508 10.0199 23.559 10 23.6684 10C23.7778 10 23.8861 10.0199 23.9868 10.0586C24.0876 10.0973 24.1788 10.1539 24.2551 10.2252C24.4121 10.3714 24.5 10.5676 24.5 10.772C24.5 10.9763 24.4121 11.1725 24.2551 11.3187L15.485 19.5016L24.2551 27.683C24.4116 27.8291 24.4991 28.0249 24.4991 28.2289C24.4991 28.4328 24.4116 28.6287 24.2551 28.7748C24.1788 28.8461 24.0876 28.9027 23.9868 28.9414C23.8861 28.9801 23.7778 29 23.6684 29C23.559 29 23.4508 28.9801 23.35 28.9414C23.2492 28.9027 23.158 28.8461 23.0817 28.7748Z" fill="white"/>
<rect x="0.5" y="-0.5" width="36" height="38" rx="4.5" transform="matrix(1 0 0 -1 0.5 38)" stroke="white" stroke-opacity="0.87"/>
</svg>
