<svg width="26" height="26" viewBox="0 0 26 26" fill="none" xmlns="http://www.w3.org/2000/svg">
<path d="M21.6666 2.58337H4.99993C3.8541 2.58337 2.9166 3.52087 2.9166 4.66671V21.3334C2.9166 22.4792 3.8541 23.4167 4.99993 23.4167H21.6666C22.8124 23.4167 23.7499 22.4792 23.7499 21.3334V4.66671C23.7499 3.52087 22.8124 2.58337 21.6666 2.58337ZM10.2083 19.25C9.63534 19.25 9.1666 18.7813 9.1666 18.2084C9.1666 17.6355 9.63534 17.1667 10.2083 17.1667C10.7812 17.1667 11.2499 17.6355 11.2499 18.2084C11.2499 18.7813 10.7812 19.25 10.2083 19.25ZM10.2083 16.125C9.63534 16.125 9.1666 15.6563 9.1666 15.0834C9.1666 14.5105 9.63534 14.0417 10.2083 14.0417C10.7812 14.0417 11.2499 14.5105 11.2499 15.0834C11.2499 15.6563 10.7812 16.125 10.2083 16.125ZM13.3333 19.25C12.7603 19.25 12.2916 18.7813 12.2916 18.2084C12.2916 17.6355 12.7603 17.1667 13.3333 17.1667C13.9062 17.1667 14.3749 17.6355 14.3749 18.2084C14.3749 18.7813 13.9062 19.25 13.3333 19.25ZM13.3333 16.125C12.7603 16.125 12.2916 15.6563 12.2916 15.0834C12.2916 14.5105 12.7603 14.0417 13.3333 14.0417C13.9062 14.0417 14.3749 14.5105 14.3749 15.0834C14.3749 15.6563 13.9062 16.125 13.3333 16.125ZM16.4583 19.25C15.8853 19.25 15.4166 18.7813 15.4166 18.2084C15.4166 17.6355 15.8853 17.1667 16.4583 17.1667C17.0312 17.1667 17.4999 17.6355 17.4999 18.2084C17.4999 18.7813 17.0312 19.25 16.4583 19.25ZM16.4583 16.125C15.8853 16.125 15.4166 15.6563 15.4166 15.0834C15.4166 14.5105 15.8853 14.0417 16.4583 14.0417C17.0312 14.0417 17.4999 14.5105 17.4999 15.0834C17.4999 15.6563 17.0312 16.125 16.4583 16.125ZM18.5416 13H8.12493V11.9584C8.12493 9.08337 10.4583 6.75004 13.3333 6.75004C16.2083 6.75004 18.5416 9.08337 18.5416 11.9584V13Z" fill="white"/>
</svg>
