<svg width="20" height="20" viewBox="0 0 20 20" fill="none" xmlns="http://www.w3.org/2000/svg">
<path d="M11.0493 9.99579L18.9285 2.10889C19.0675 1.9692 19.1455 1.78012 19.1454 1.58305C19.1452 1.38598 19.067 1.197 18.9278 1.05749C18.6492 0.780293 18.1585 0.778893 17.8771 1.05889L10 8.94579L2.12011 1.05679C1.84011 0.780293 1.34941 0.781693 1.07081 1.05819C1.00166 1.12707 0.946916 1.20903 0.909779 1.29929C0.872642 1.38954 0.853853 1.4863 0.854509 1.58389C0.854509 1.78269 0.931509 1.96889 1.07081 2.10679L8.95001 9.99509L1.07151 17.8841C0.932479 18.024 0.85462 18.2133 0.855014 18.4106C0.855407 18.6078 0.934021 18.7968 1.07361 18.9362C1.20871 19.0699 1.39981 19.1469 1.59721 19.1469H1.60141C1.79951 19.1462 1.99061 19.0685 2.12291 18.9334L10 11.0465L17.8799 18.9355C18.0192 19.0741 18.2054 19.1511 18.4028 19.1511C18.5004 19.1514 18.5971 19.1323 18.6874 19.0951C18.7776 19.0579 18.8596 19.0032 18.9286 18.9342C18.9976 18.8652 19.0523 18.7832 19.0895 18.6929C19.1268 18.6027 19.1458 18.506 19.1455 18.4084C19.1455 18.2103 19.0685 18.0234 18.9285 17.8855L11.0493 9.99579Z" fill="white"/>
</svg>
