<svg width="25" height="25" viewBox="0 0 25 25" fill="none" xmlns="http://www.w3.org/2000/svg">
<path d="M8.33337 8.33337V6.25004H10.4167V8.33337H8.33337ZM7.29171 2.08337H17.7084C18.2609 2.08337 18.7908 2.30287 19.1815 2.69357C19.5722 3.08427 19.7917 3.61417 19.7917 4.16671V19.7917C19.7917 20.3442 19.5722 20.8741 19.1815 21.2648C18.7908 21.6555 18.2609 21.875 17.7084 21.875V22.9167H15.625V21.875H9.37504V22.9167H7.29171V21.875C6.73917 21.875 6.20927 21.6555 5.81857 21.2648C5.42787 20.8741 5.20837 20.3442 5.20837 19.7917V4.16671C5.20837 3.61417 5.42787 3.08427 5.81857 2.69357C6.20927 2.30287 6.73917 2.08337 7.29171 2.08337ZM7.29171 4.16671V9.37504H17.7084V4.16671H7.29171ZM8.33337 12.5V15.625H10.4167V12.5H8.33337Z" fill="white"/>
</svg>
