<svg width="26" height="26" viewBox="0 0 26 26" fill="none" xmlns="http://www.w3.org/2000/svg">
<g clip-path="url(#clip0_1773_180)">
<path d="M23.7499 9.87504C22.9416 9.89529 22.1428 9.69738 21.4374 9.30212C20.8741 8.9788 20.2326 8.81663 19.5833 8.83337V7.79171C20.3916 7.77146 21.1904 7.96937 21.8958 8.36462C22.4591 8.68795 23.1006 8.85011 23.7499 8.83337V9.87504ZM23.7499 6.75004C23.1006 6.76678 22.4591 6.60462 21.8958 6.28129C21.1904 5.88603 20.3916 5.68812 19.5833 5.70837V6.75004C20.2326 6.7333 20.8741 6.89546 21.4374 7.21879C22.1428 7.61405 22.9416 7.81196 23.7499 7.79171V6.75004ZM23.7499 10.9167C23.1006 10.9334 22.4591 10.7713 21.8958 10.448C21.1904 10.0527 20.3916 9.85479 19.5833 9.87504V10.9167C20.2326 10.9 20.8741 11.0621 21.4374 11.3855C22.1428 11.7807 22.9416 11.9786 23.7499 11.9584V10.9167ZM11.2499 13.7605C13.7097 13.2847 16.1434 12.6832 18.5416 11.9584V4.66671C18.5416 4.66671 11.7708 2.58337 8.64576 2.58337C7.25461 2.58729 5.91241 3.09725 4.86964 4.01808C3.82687 4.93891 3.15476 6.20771 2.97876 7.58768C2.80276 8.96766 3.13487 10.3645 3.91314 11.5176C4.6914 12.6707 5.86263 13.5012 7.20826 13.8542L8.12493 20.2917H9.1666C9.20825 20.7882 9.36802 21.2675 9.63258 21.6897C9.89713 22.1119 10.2588 22.4648 10.6874 22.7188C11.1707 23.0061 11.572 23.4128 11.8529 23.8998C12.1338 24.3868 12.2849 24.9379 12.2916 25.5H13.3333C13.3285 24.7824 13.1439 24.0775 12.7964 23.4497C12.4488 22.8218 11.9493 22.2912 11.3437 21.9063C10.6145 21.3334 10.2083 20.948 10.2083 20.2917H11.2499V13.7605ZM8.64576 10.9167C8.13071 10.9167 7.62722 10.764 7.19897 10.4778C6.77071 10.1917 6.43693 9.78496 6.23983 9.30911C6.04272 8.83326 5.99115 8.30965 6.09163 7.80449C6.19212 7.29933 6.44014 6.83532 6.80434 6.47112C7.16854 6.10692 7.63256 5.85889 8.13772 5.75841C8.64287 5.65793 9.16649 5.7095 9.64233 5.9066C10.1182 6.10371 10.5249 6.43749 10.811 6.86574C11.0972 7.294 11.2499 7.79748 11.2499 8.31254C11.2499 9.00321 10.9756 9.66559 10.4872 10.154C9.99881 10.6423 9.33643 10.9167 8.64576 10.9167Z" fill="white"/>
</g>
<defs>
<clipPath id="clip0_1773_180">
<rect width="25" height="25" fill="white" transform="translate(0.833252 0.5)"/>
</clipPath>
</defs>
</svg>
