<svg width="26" height="26" viewBox="0 0 26 26" fill="none" xmlns="http://www.w3.org/2000/svg">
<path d="M13 17.3332C15.3933 17.3332 17.3334 15.3931 17.3334 12.9998C17.3334 10.6066 15.3933 8.6665 13 8.6665C10.6068 8.6665 8.66669 10.6066 8.66669 12.9998C8.66669 15.3931 10.6068 17.3332 13 17.3332Z" fill="white"/>
<path d="M14.0834 4.40792V2.1665H11.9167V4.40792C10.0103 4.65133 8.23874 5.52069 6.87981 6.87962C5.52087 8.23855 4.65151 10.0102 4.4081 11.9165H2.16669V14.0832H4.4081C4.65115 15.9897 5.5204 17.7615 6.8794 19.1205C8.2384 20.4795 10.0102 21.3487 11.9167 21.5918V23.8332H14.0834V21.5918C15.9899 21.3489 17.7618 20.4797 19.1208 19.1207C20.4799 17.7616 21.3491 15.9897 21.5919 14.0832H23.8334V11.9165H21.5919C21.3489 10.01 20.4796 8.23822 19.1206 6.87922C17.7616 5.52022 15.9898 4.65097 14.0834 4.40792ZM13 19.4998C9.41527 19.4998 6.50002 16.5846 6.50002 12.9998C6.50002 9.41509 9.41527 6.49984 13 6.49984C16.5848 6.49984 19.5 9.41509 19.5 12.9998C19.5 16.5846 16.5848 19.4998 13 19.4998Z" fill="white"/>
</svg>
