<svg width="76" height="76" viewBox="0 0 76 76" fill="none" xmlns="http://www.w3.org/2000/svg">
<rect width="76" height="76" rx="38" fill="url(#paint0_linear_132_2540)"/>
<path d="M41.2308 24.9333C41.2308 24.6858 41.3442 24.4484 41.5462 24.2734C41.7482 24.0983 42.0221 24 42.3077 24H50.9231C51.2087 24 51.4826 24.0983 51.6846 24.2734C51.8865 24.4484 52 24.6858 52 24.9333V34.2667C52 34.5142 51.8865 34.7516 51.6846 34.9266C51.4826 35.1017 51.2087 35.2 50.9231 35.2H47.6923V51.0667C47.6923 51.3142 47.5788 51.5516 47.3769 51.7266C47.1749 51.9017 46.901 52 46.6154 52C46.3298 52 46.0558 51.9017 45.8539 51.7266C45.6519 51.5516 45.5385 51.3142 45.5385 51.0667V35.2H42.3077C42.0221 35.2 41.7482 35.1017 41.5462 34.9266C41.3442 34.7516 41.2308 34.5142 41.2308 34.2667V24.9333ZM31.1486 27.7333H39.0769V29.6H31.1486C30.625 29.5999 30.1194 29.7651 29.7261 30.0647C29.3329 30.3642 29.079 30.7777 29.012 31.2277L28.4197 35.2H39.26C39.4828 35.7461 39.8956 36.219 40.4414 36.5533C40.9872 36.8876 41.6393 37.067 42.3077 37.0667H43.3846V39.4821C43.1412 39.4066 42.8803 39.383 42.6241 39.4133C42.3679 39.4436 42.1239 39.5269 41.9127 39.6561C41.7014 39.7854 41.5292 39.9568 41.4105 40.1559C41.2918 40.355 41.2302 40.5759 41.2308 40.8C41.2307 41.0239 41.2926 41.2446 41.4115 41.4435C41.5303 41.6424 41.7025 41.8136 41.9136 41.9427C42.1247 42.0719 42.3685 42.1552 42.6245 42.1857C42.8805 42.2162 43.1412 42.1929 43.3846 42.1179V46.4H27.2308C26.3739 46.4 25.5522 46.105 24.9463 45.5799C24.3404 45.0548 24 44.3426 24 43.6V38C23.9999 37.4095 24.2152 36.834 24.6152 36.3559C25.0152 35.8778 25.5794 35.5216 26.2271 35.3381L26.2486 35.2H25.0769C24.7913 35.2 24.5174 35.1017 24.3154 34.9266C24.1135 34.7516 24 34.5142 24 34.2667C24 34.0191 24.1135 33.7817 24.3154 33.6067C24.5174 33.4317 24.7913 33.3333 25.0769 33.3333H26.5265L26.8754 30.9888C27.0095 30.0884 27.5175 29.2612 28.3044 28.662C29.0914 28.0628 30.1033 27.7327 31.1508 27.7333H31.1486ZM31 42.1981C31.2119 42.1981 31.4216 42.162 31.6174 42.0917C31.8131 42.0214 31.9909 41.9185 32.1407 41.7886C32.2905 41.6588 32.4094 41.5047 32.4904 41.335C32.5715 41.1654 32.6132 40.9836 32.6132 40.8C32.6132 40.6164 32.5715 40.4346 32.4904 40.265C32.4094 40.0953 32.2905 39.9412 32.1407 39.8114C31.9909 39.6815 31.8131 39.5786 31.6174 39.5083C31.4216 39.438 31.2119 39.4019 31 39.4019C30.5721 39.4019 30.1618 39.5492 29.8593 39.8114C29.5567 40.0736 29.3868 40.4292 29.3868 40.8C29.3868 41.1708 29.5567 41.5264 29.8593 41.7886C30.1618 42.0508 30.5721 42.1981 31 42.1981ZM30.4615 48.2667H27.2308V48.7333C27.2308 49.1046 27.401 49.4607 27.7039 49.7233C28.0068 49.9858 28.4177 50.1333 28.8462 50.1333C29.2746 50.1333 29.6855 49.9858 29.9884 49.7233C30.2913 49.4607 30.4615 49.1046 30.4615 48.7333V48.2667Z" fill="white"/>
<defs>
<linearGradient id="paint0_linear_132_2540" x1="-2.94194" y1="-14.2936" x2="48.2766" y2="-4.48024" gradientUnits="userSpaceOnUse">
<stop stop-color="#712EFF"/>
<stop offset="1" stop-color="#8559E2"/>
</linearGradient>
</defs>
</svg>
