<svg width="16" height="20" viewBox="0 0 16 20" fill="none" xmlns="http://www.w3.org/2000/svg">
<path d="M7.99999 19.7499C6.63168 18.5827 5.36337 17.3032 4.20832 15.9246C2.47499 13.8544 0.416657 10.7712 0.416657 7.83323C0.415906 6.33277 0.860291 4.86581 1.69358 3.61801C2.52686 2.3702 3.71158 1.39764 5.09782 0.82341C6.48405 0.249178 8.00947 0.0990856 9.48103 0.392129C10.9526 0.685172 12.3042 1.40818 13.3647 2.46965C14.0707 3.17258 14.6304 4.00856 15.0112 4.92922C15.392 5.84987 15.5865 6.83692 15.5833 7.83323C15.5833 10.7712 13.525 13.8544 11.7917 15.9246C10.6366 17.3032 9.3683 18.5827 7.99999 19.7499ZM7.99999 4.58323C7.13804 4.58323 6.31139 4.92564 5.70189 5.53513C5.0924 6.14463 4.74999 6.97128 4.74999 7.83323C4.74999 8.69518 5.0924 9.52183 5.70189 10.1313C6.31139 10.7408 7.13804 11.0832 7.99999 11.0832C8.86195 11.0832 9.6886 10.7408 10.2981 10.1313C10.9076 9.52183 11.25 8.69518 11.25 7.83323C11.25 6.97128 10.9076 6.14463 10.2981 5.53513C9.6886 4.92564 8.86195 4.58323 7.99999 4.58323Z" fill="white"/>
</svg>
