<svg width="76" height="76" viewBox="0 0 76 76" fill="none" xmlns="http://www.w3.org/2000/svg">
<rect width="76" height="76" rx="38" fill="url(#paint0_linear_132_2494)"/>
<path opacity="0.3" d="M49.6666 48.5002C48.3716 48.5002 47.6483 48.0685 47.1233 47.7535C46.6916 47.4969 46.4233 47.3335 45.7816 47.3335C45.1283 47.3335 44.8716 47.4852 44.44 47.7535C43.9033 48.0685 43.1916 48.5002 41.8966 48.5002C40.6016 48.5002 39.8783 48.0685 39.3533 47.7535C38.9216 47.4969 38.6533 47.3335 38.0116 47.3335C37.3583 47.3335 37.1016 47.4852 36.67 47.7535C36.1333 48.0685 35.41 48.5002 34.115 48.5002C32.82 48.5002 32.0966 48.0685 31.5716 47.7535C31.14 47.4852 30.8716 47.3335 30.23 47.3335C29.5883 47.3335 29.32 47.4852 28.8883 47.7535C28.3516 48.0685 27.6283 48.5002 26.3333 48.5002V46.1669C26.9866 46.1669 27.2433 46.0152 27.675 45.7469C28.2116 45.4319 28.935 45.0002 30.23 45.0002C31.525 45.0002 32.2483 45.4319 32.7733 45.7469C33.205 46.0152 33.4616 46.1669 34.115 46.1669C34.7683 46.1669 35.025 46.0152 35.4566 45.7469C35.9933 45.4319 36.7166 45.0002 38.0116 45.0002C39.3066 45.0002 40.03 45.4319 40.555 45.7469C40.9866 46.0035 41.255 46.1669 41.8966 46.1669C42.5383 46.1669 42.8066 46.0152 43.2383 45.7469C43.7633 45.4319 44.4866 45.0002 45.7816 45.0002C47.0766 45.0002 47.8 45.4319 48.325 45.7469C48.7566 46.0152 49.0133 46.1669 49.6666 46.1669V48.5002ZM49.6666 43.2502C48.3716 43.2502 47.6483 42.8185 47.1233 42.5035C46.6916 42.2469 46.4233 42.0835 45.7816 42.0835C45.1283 42.0835 44.8716 42.2352 44.44 42.5035C43.915 42.8185 43.1916 43.2502 41.8966 43.2502C40.6016 43.2502 39.8783 42.8185 39.3533 42.5035C38.9216 42.2469 38.6533 42.0835 38.0116 42.0835C37.3583 42.0835 37.1016 42.2352 36.67 42.5035C36.145 42.8185 35.4216 43.2502 34.1266 43.2502C32.8316 43.2502 32.1083 42.8185 31.5833 42.5035C31.1516 42.2469 30.8833 42.0835 30.2416 42.0835C29.6 42.0835 29.3316 42.2352 28.9 42.5035C28.3516 42.8185 27.6283 43.2502 26.3333 43.2502V40.9169C26.9866 40.9169 27.2433 40.7652 27.675 40.4969C28.2 40.1819 28.9233 39.7502 30.2183 39.7502C31.5133 39.7502 32.2366 40.1819 32.7616 40.4969C33.1933 40.7535 33.4616 40.9169 34.1033 40.9169C34.7566 40.9169 35.0133 40.7652 35.445 40.4969C35.97 40.1819 36.6933 39.7502 37.9883 39.7502C39.2833 39.7502 40.0066 40.1819 40.5316 40.4969C40.9633 40.7535 41.2316 40.9169 41.8733 40.9169C42.515 40.9169 42.7833 40.7652 43.215 40.4969C43.74 40.1819 44.4633 39.7502 45.7583 39.7502C47.0533 39.7502 47.7766 40.1819 48.3016 40.4969C48.7333 40.7535 49.0016 40.9169 49.6433 40.9169V43.2502H49.6666ZM34.115 38.0002C34.7683 38.0002 35.025 37.8485 35.4566 37.5802C35.9933 37.2652 36.7166 36.8335 38.0116 36.8335C39.3066 36.8335 40.03 37.2652 40.555 37.5802C40.9866 37.8369 41.255 38.0002 41.8966 38.0002C42.5383 38.0002 42.8066 37.8485 43.2383 37.5802C43.3783 37.4985 43.5416 37.4052 43.7166 37.3119L36.2266 29.8335C34.4183 28.0252 32.75 27.4885 29.8333 27.5002V30.4169C31.9566 30.4052 33.205 30.8719 34.5 32.1669L35.6666 33.3335L31.875 37.1252C32.2366 37.2652 32.5283 37.4402 32.7733 37.5802C33.205 37.8485 33.4616 38.0002 34.115 38.0002Z" fill="white"/>
<path opacity="0.3" d="M43.25 33.3333C44.8608 33.3333 46.1666 32.0275 46.1666 30.4167C46.1666 28.8058 44.8608 27.5 43.25 27.5C41.6391 27.5 40.3333 28.8058 40.3333 30.4167C40.3333 32.0275 41.6391 33.3333 43.25 33.3333Z" fill="white"/>
<path d="M49.6666 43.2502H49.6433H49.6666ZM35.6666 33.3335L31.875 37.1252C32.2366 37.2652 32.5283 37.4402 32.7733 37.5802C33.205 37.8485 33.4616 38.0002 34.115 38.0002C34.7683 38.0002 35.025 37.8485 35.4566 37.5802C35.9933 37.2652 36.7166 36.8335 38.0116 36.8335C39.3066 36.8335 40.03 37.2652 40.555 37.5802C40.9866 37.8369 41.255 38.0002 41.8966 38.0002C42.5383 38.0002 42.8066 37.8485 43.2383 37.5802C43.3783 37.4985 43.5416 37.4052 43.7166 37.3119L36.2266 29.8335C34.4183 28.0252 32.75 27.4885 29.8333 27.5002V30.4169C31.9566 30.4052 33.205 30.8719 34.5 32.1669L35.6666 33.3335ZM30.2416 42.0835C30.8833 42.0835 31.1516 42.2469 31.5833 42.5035C32.1083 42.8185 32.8316 43.2502 34.1266 43.2502C35.4216 43.2502 36.145 42.8185 36.67 42.5035C37.1016 42.2352 37.3583 42.0835 38.0116 42.0835C38.6533 42.0835 38.9216 42.2469 39.3533 42.5035C39.8783 42.8185 40.6016 43.2502 41.8966 43.2502C43.1916 43.2502 43.915 42.8185 44.44 42.5035C44.8716 42.2352 45.1283 42.0835 45.7816 42.0835C46.4233 42.0835 46.6916 42.2469 47.1233 42.5035C47.6483 42.8185 48.36 43.2385 49.6433 43.2502V40.9169C49.0016 40.9169 48.7333 40.7535 48.3016 40.4969C47.7766 40.1819 47.0533 39.7502 45.7583 39.7502C44.4633 39.7502 43.74 40.1819 43.215 40.4969C42.7833 40.7652 42.515 40.9169 41.8733 40.9169C41.2316 40.9169 40.9633 40.7535 40.5316 40.4969C40.0066 40.1819 39.2833 39.7502 37.9883 39.7502C36.6933 39.7502 35.97 40.1819 35.445 40.4969C35.0133 40.7652 34.7566 40.9169 34.1033 40.9169C33.4616 40.9169 33.1933 40.7535 32.7616 40.4969C32.2366 40.1819 31.5133 39.7502 30.2183 39.7502C28.9233 39.7502 28.2 40.1819 27.675 40.4969C27.2433 40.7652 26.9866 40.9169 26.3333 40.9169V43.2502C27.6283 43.2502 28.3516 42.8185 28.9 42.5035C29.3316 42.2352 29.6 42.0835 30.2416 42.0835ZM45.7816 45.0002C44.4866 45.0002 43.7633 45.4319 43.2383 45.7469C42.8066 46.0152 42.5383 46.1669 41.8966 46.1669C41.255 46.1669 40.9866 46.0035 40.555 45.7469C40.03 45.4319 39.3066 45.0002 38.0116 45.0002C36.7166 45.0002 35.9933 45.4319 35.4566 45.7469C35.025 46.0152 34.7683 46.1669 34.115 46.1669C33.4616 46.1669 33.205 46.0152 32.7733 45.7469C32.2483 45.4319 31.525 45.0002 30.23 45.0002C28.935 45.0002 28.2116 45.4319 27.675 45.7469C27.2433 46.0152 26.9866 46.1669 26.3333 46.1669V48.5002C27.6283 48.5002 28.3516 48.0685 28.8883 47.7535C29.32 47.4852 29.5883 47.3335 30.23 47.3335C30.8716 47.3335 31.14 47.4852 31.5716 47.7535C32.0966 48.0685 32.82 48.5002 34.115 48.5002C35.41 48.5002 36.1333 48.0685 36.67 47.7535C37.1016 47.4852 37.3583 47.3335 38.0116 47.3335C38.6533 47.3335 38.9216 47.4969 39.3533 47.7535C39.8783 48.0685 40.6016 48.5002 41.8966 48.5002C43.1916 48.5002 43.9033 48.0685 44.44 47.7535C44.8716 47.4852 45.1283 47.3335 45.7816 47.3335C46.4233 47.3335 46.6916 47.4969 47.1233 47.7535C47.6483 48.0685 48.3716 48.5002 49.6666 48.5002V46.1669C49.0133 46.1669 48.7566 46.0152 48.325 45.7469C47.8 45.4319 47.0766 45.0002 45.7816 45.0002Z" fill="white"/>
<path d="M43.25 33.3333C44.8608 33.3333 46.1666 32.0275 46.1666 30.4167C46.1666 28.8058 44.8608 27.5 43.25 27.5C41.6391 27.5 40.3333 28.8058 40.3333 30.4167C40.3333 32.0275 41.6391 33.3333 43.25 33.3333Z" fill="white"/>
<defs>
<linearGradient id="paint0_linear_132_2494" x1="-2.94194" y1="-14.2936" x2="48.2766" y2="-4.48024" gradientUnits="userSpaceOnUse">
<stop stop-color="#712EFF"/>
<stop offset="1" stop-color="#8559E2"/>
</linearGradient>
</defs>
</svg>
