<svg width="48" height="44" viewBox="0 0 48 44" fill="none" xmlns="http://www.w3.org/2000/svg">
<path d="M20.1 10.3501C20.0994 8.18907 19.381 6.08948 18.0575 4.38118C16.734 2.67288 14.8804 1.45268 12.7881 0.912296C10.6957 0.371915 8.48312 0.541976 6.49792 1.39576C4.51272 2.24954 2.86742 3.73865 1.82051 5.62914C0.773608 7.51964 0.384433 9.70436 0.714132 11.8401C1.04383 13.9758 2.07372 15.9414 3.64199 17.4282C5.21025 18.915 7.22802 19.8386 9.37827 20.054C11.5285 20.2694 13.6894 19.7643 15.5214 18.6181C14.8933 22.3931 13.6384 26.0366 11.8086 29.3977C9.27749 33.9997 6.05219 37.2406 3.11939 40.1695C2.75323 40.5356 2.54753 41.0323 2.54753 41.5501C2.54753 42.0679 2.75323 42.5645 3.11939 42.9307C3.48555 43.2968 3.98216 43.5025 4.49999 43.5025C5.01781 43.5025 5.51443 43.2968 5.88059 42.9307L5.92349 42.8839C8.83679 39.9706 12.4131 36.3943 15.2289 31.2775C18.072 26.0983 20.1 19.4371 20.1 10.3501ZM42.8214 18.6181C40.9894 19.7643 38.8285 20.2694 36.6783 20.054C34.528 19.8386 32.5103 18.915 30.942 17.4282C29.3737 15.9414 28.3438 13.9758 28.0141 11.8401C27.6844 9.70436 28.0736 7.51964 29.1205 5.62914C30.1674 3.73865 31.8127 2.24954 33.7979 1.39576C35.7831 0.541976 37.9957 0.371915 40.0881 0.912296C42.1804 1.45268 44.034 2.67288 45.3575 4.38118C46.681 6.08948 47.3994 8.18907 47.4 10.3501C47.4 19.4371 45.372 26.0983 42.525 31.2775C39.7131 36.3943 36.1368 39.9745 33.2274 42.8839L33.1806 42.9307C32.8144 43.2968 32.3178 43.5025 31.8 43.5025C31.2822 43.5025 30.7855 43.2968 30.4194 42.9307C30.0532 42.5645 29.8475 42.0679 29.8475 41.5501C29.8475 41.0323 30.0532 40.5356 30.4194 40.1695C33.3522 37.2406 36.5775 34.0036 39.1086 29.3977C40.9389 26.0354 42.1939 22.3906 42.8214 18.6142V18.6181Z" fill="url(#paint0_linear_98_1333)"/>
<defs>
<linearGradient id="paint0_linear_98_1333" x1="-1.21164" y1="-7.46581" x2="30.1173" y2="-0.917577" gradientUnits="userSpaceOnUse">
<stop stop-color="#712EFF"/>
<stop offset="1" stop-color="#8559E2"/>
</linearGradient>
</defs>
</svg>
