<svg width="39" height="36" viewBox="0 0 39 36" fill="none" xmlns="http://www.w3.org/2000/svg">
<path d="M22.75 27.8751C22.7504 29.6759 23.3492 31.4256 24.4521 32.8492C25.555 34.2728 27.0996 35.2896 28.8433 35.7399C30.5869 36.1902 32.4307 36.0485 34.085 35.337C35.7394 34.6255 37.1105 33.3846 37.9829 31.8092C38.8553 30.2338 39.1796 28.4132 38.9049 26.6334C38.6301 24.8537 37.7719 23.2156 36.465 21.9766C35.1581 20.7377 33.4766 19.968 31.6848 19.7885C29.8929 19.609 28.0921 20.0299 26.5655 20.9851C27.0889 17.8392 28.1346 14.803 29.6595 12.0021C31.7687 8.16709 34.4565 5.46634 36.9005 3.02559C37.2056 2.72046 37.377 2.30661 37.377 1.87509C37.377 1.44357 37.2056 1.02972 36.9005 0.72459C36.5954 0.419456 36.1815 0.248039 35.75 0.248039C35.3185 0.248039 34.9046 0.419456 34.5995 0.72459L34.5637 0.763592C32.136 3.19134 29.1557 6.17159 26.8092 10.4356C24.44 14.7516 22.75 20.3026 22.75 27.8751ZM3.81549 20.9851C5.34215 20.0299 7.14288 19.609 8.93475 19.7885C10.7266 19.968 12.4081 20.7377 13.715 21.9766C15.0219 23.2156 15.8801 24.8537 16.1549 26.6334C16.4296 28.4132 16.1053 30.2338 15.2329 31.8092C14.3605 33.3846 12.9894 34.6255 11.335 35.337C9.68071 36.0485 7.83688 36.1902 6.09325 35.7399C4.34962 35.2896 2.80501 34.2728 1.70209 32.8492C0.599163 31.4256 0.000442505 29.6759 -1.14441e-05 27.8751C-1.14441e-05 20.3026 1.68999 14.7516 4.06249 10.4356C6.40574 6.17159 9.38599 3.18809 11.8105 0.763592L11.8495 0.72459C12.1546 0.419456 12.5685 0.248039 13 0.248039C13.4315 0.248039 13.8454 0.419456 14.1505 0.72459C14.4556 1.02972 14.627 1.44357 14.627 1.87509C14.627 2.30661 14.4556 2.72046 14.1505 3.02559C11.7065 5.46634 9.01874 8.16384 6.90949 12.0021C5.38419 14.804 4.33842 17.8413 3.81549 20.9883V20.9851Z" fill="url(#paint0_linear_2275_85)"/>
<defs>
<linearGradient id="paint0_linear_2275_85" x1="40.5097" y1="42.7217" x2="14.4022" y2="37.2648" gradientUnits="userSpaceOnUse">
<stop stop-color="#712EFF"/>
<stop offset="1" stop-color="#8559E2"/>
</linearGradient>
</defs>
</svg>
