<svg width="14" height="13" viewBox="0 0 14 13" fill="none" xmlns="http://www.w3.org/2000/svg">
<path d="M13.0798 4.57767L9.18268 3.98457L7.44055 0.28611C7.39297 0.184848 7.31469 0.102875 7.21799 0.0530477C6.97547 -0.0723237 6.68077 0.0321525 6.55951 0.28611L4.81738 3.98457L0.920236 4.57767C0.812792 4.59374 0.714557 4.64679 0.639346 4.72715C0.548421 4.82502 0.498316 4.95668 0.500043 5.09321C0.50177 5.22974 0.555187 5.35996 0.648556 5.45527L3.46819 8.33399L2.80204 12.3989C2.78642 12.4935 2.79641 12.5907 2.83088 12.6796C2.86536 12.7686 2.92293 12.8456 2.99708 12.902C3.07123 12.9584 3.15898 12.9919 3.25039 12.9987C3.3418 13.0055 3.4332 12.9854 3.51424 12.9406L7.00003 11.0214L10.4858 12.9406C10.581 12.9936 10.6915 13.0113 10.7974 12.992C11.0645 12.9438 11.2441 12.6786 11.198 12.3989L10.5319 8.33399L13.3515 5.45527C13.4283 5.37651 13.4789 5.27364 13.4943 5.16113C13.5357 4.87985 13.3484 4.61946 13.0798 4.57767Z" fill="#FFC700"/>
</svg>
