<svg width="76" height="76" viewBox="0 0 76 76" fill="none" xmlns="http://www.w3.org/2000/svg">
<rect width="76" height="76" rx="38" fill="url(#paint0_linear_132_2522)"/>
<path d="M50.25 33.625V26.625C50.25 26.3929 50.1578 26.1704 49.9937 26.0063C49.8296 25.8422 49.6071 25.75 49.375 25.75H40.625C40.3929 25.75 40.1704 25.8422 40.0063 26.0063C39.8422 26.1704 39.75 26.3929 39.75 26.625V33.625C39.752 34.8646 40.1922 36.0635 40.9928 37.0099C41.7934 37.9562 42.9029 38.589 44.125 38.7962V48.5H40.625V50.25H49.375V48.5H45.875V38.7962C47.0971 38.589 48.2066 37.9562 49.0072 37.0099C49.8078 36.0635 50.248 34.8646 50.25 33.625ZM41.5 33.625V27.5H48.5V33.625C48.5 34.5533 48.1313 35.4435 47.4749 36.0999C46.8185 36.7563 45.9283 37.125 45 37.125C44.0717 37.125 43.1815 36.7563 42.5251 36.0999C41.8687 35.4435 41.5 34.5533 41.5 33.625Z" fill="white"/>
<path d="M34.5 25.75V33.6425C34.4991 34.5612 34.1337 35.442 33.4841 36.0916C32.8345 36.7412 31.9537 37.1066 31.035 37.1075C30.1071 37.1157 29.2138 36.7555 28.5511 36.1059C27.8884 35.4563 27.5104 34.5704 27.5 33.6425V25.75H25.75V33.6425C25.7586 34.876 26.2021 36.0669 27.0024 37.0057C27.8026 37.9444 28.9084 38.5707 30.125 38.7744V50.25H31.875V38.7831C33.0949 38.5831 34.2042 37.9567 35.0054 37.0153C35.8066 36.0739 36.2476 34.8787 36.25 33.6425V25.75H34.5Z" fill="white"/>
<path d="M30.125 25.75H31.875V34.4825H30.125V25.75Z" fill="white"/>
<defs>
<linearGradient id="paint0_linear_132_2522" x1="-2.94194" y1="-14.2936" x2="48.2766" y2="-4.48024" gradientUnits="userSpaceOnUse">
<stop stop-color="#712EFF"/>
<stop offset="1" stop-color="#8559E2"/>
</linearGradient>
</defs>
</svg>
