<svg width="50" height="50" viewBox="0 0 50 50" fill="none" xmlns="http://www.w3.org/2000/svg">
<circle cx="25" cy="25" r="25" transform="matrix(-1 0 0 1 50 0)" fill="#F5F5F5"/>
<path d="M5 25C5 36.046 13.954 45 25 45C36.046 45 45 36.046 45 25C45 13.954 36.046 5 25 5C13.954 5 5 13.954 5 25ZM24.866 33.634C24.7499 33.5179 24.6578 33.3801 24.5949 33.2284C24.5321 33.0768 24.4998 32.9142 24.4998 32.75C24.4998 32.5858 24.5321 32.4232 24.5949 32.2716C24.6578 32.1199 24.7499 31.9821 24.866 31.866L30.482 26.25H16.25C15.9185 26.25 15.6005 26.1183 15.3661 25.8839C15.1317 25.6495 15 25.3315 15 25C15 24.6685 15.1317 24.3505 15.3661 24.1161C15.6005 23.8817 15.9185 23.75 16.25 23.75H30.482L24.866 18.134C24.6315 17.8995 24.4998 17.5816 24.4998 17.25C24.4998 16.9184 24.6315 16.6005 24.866 16.366C25.1005 16.1315 25.4184 15.9998 25.75 15.9998C26.0816 15.9998 26.3995 16.1315 26.634 16.366L34.384 24.116C34.5001 24.2321 34.5922 24.3699 34.6551 24.5216C34.7179 24.6732 34.7502 24.8358 34.7502 25C34.7502 25.1642 34.7179 25.3268 34.6551 25.4784C34.5922 25.6301 34.5001 25.7679 34.384 25.884L26.634 33.634C26.5179 33.7501 26.3801 33.8422 26.2284 33.9051C26.0768 33.9679 25.9142 34.0002 25.75 34.0002C25.5858 34.0002 25.4232 33.9679 25.2716 33.9051C25.1199 33.8422 24.9821 33.7501 24.866 33.634Z" fill="#1F1F1F"/>
</svg>
