<svg width="26" height="26" viewBox="0 0 26 26" fill="none" xmlns="http://www.w3.org/2000/svg">
<path d="M22.7439 15.9082L23.7214 15.3679L22.6408 13.4123L21.6633 13.9527C20.9137 14.3674 20.2496 14.9205 19.7062 15.5827L15.2344 13L19.7067 10.4173C20.2501 11.0795 20.9142 11.6326 21.6638 12.0473L22.6413 12.5877L23.722 10.6321L22.7444 10.0918C22.3519 9.87498 21.9937 9.60117 21.6816 9.27926L24.375 7.72129L23.2578 5.78906L20.5664 7.34195C20.4429 6.91038 20.3844 6.46283 20.3927 6.01402L20.4136 4.89684L18.1792 4.8552L18.1584 5.97238C18.1426 6.82812 18.2889 7.67911 18.5895 8.48047L14.1172 11.0647V5.89977C14.9622 5.75999 15.7731 5.46138 16.507 5.01973L17.4637 4.44336L16.3104 2.52941L15.3537 3.10578C14.9691 3.33702 14.5524 3.51003 14.1172 3.61918V0.8125H11.8828V3.61918C11.4476 3.51003 11.0309 3.33702 10.6463 3.10578L9.68957 2.52941L8.53633 4.44336L9.49305 5.01973C10.2269 5.46138 11.0378 5.75999 11.8828 5.89977V11.0647L7.41051 8.48047C7.71206 7.67861 7.85904 6.8269 7.84367 5.97035L7.82285 4.85316L5.58848 4.8948L5.6093 6.01199C5.61762 6.4608 5.55909 6.90835 5.43563 7.33992L2.74219 5.78906L1.625 7.72383L4.31895 9.27977C4.0068 9.60167 3.64861 9.87549 3.25609 10.0923L2.27855 10.6321L3.35918 12.5877L4.33672 12.0473C5.08627 11.6326 5.75038 11.0795 6.29383 10.4173L10.7656 13L6.29332 15.5827C5.74987 14.9205 5.08577 14.3674 4.33621 13.9527L3.35918 13.4123L2.27855 15.3679L3.25609 15.9082C3.64861 16.125 4.0068 16.3988 4.31895 16.7207L1.625 18.2812L2.74219 20.216L5.43613 18.6606C5.5596 19.0922 5.61813 19.5397 5.6098 19.9885L5.58898 21.1057L7.82336 21.1473L7.84418 20.0302C7.85945 19.1734 7.71229 18.3215 7.41051 17.5195L11.8828 14.9353V20.1002C11.0378 20.24 10.2269 20.5386 9.49305 20.9803L8.53633 21.5566L9.68957 23.4706L10.6463 22.8942C11.0309 22.663 11.4476 22.49 11.8828 22.3808V25.1875H14.1172V22.3808C14.5524 22.49 14.9691 22.663 15.3537 22.8942L16.3104 23.4706L17.4637 21.5566L16.507 20.9803C15.7731 20.5386 14.9622 20.24 14.1172 20.1002V14.9353L18.5895 17.5195C18.2879 18.3214 18.141 19.1731 18.1563 20.0296L18.1771 21.1468L20.4115 21.1052L20.3907 19.988C20.3828 19.5384 20.4421 19.0902 20.5664 18.658L23.2578 20.2135L24.375 18.2812L21.6836 16.7228C21.9948 16.4003 22.3522 16.1259 22.7439 15.9082Z" fill="white"/>
</svg>
