<svg width="76" height="76" viewBox="0 0 76 76" fill="none" xmlns="http://www.w3.org/2000/svg">
<rect width="76" height="76" rx="38" fill="url(#paint0_linear_132_2488)"/>
<path d="M50.9681 49.1988H41.5V51.9987H51.0649C51.2758 52.0111 51.4838 51.9362 51.654 51.7864C51.8243 51.6367 51.9464 51.4212 52 51.1762V50.4972C52 50.4972 51.993 49.1988 50.9681 49.1988ZM49.6585 48.6458C50.28 48.6447 50.8758 48.3476 51.3148 47.8197C51.7539 47.2918 52.0003 46.5764 52 45.8306C52 44.2717 50.95 43.0146 49.6585 43.0146C49.3509 43.0152 49.0465 43.0886 48.7626 43.2305C48.4787 43.3724 48.2208 43.58 48.0038 43.8415C47.7868 44.103 47.6148 44.4133 47.4978 44.7546C47.3807 45.0959 47.3209 45.4615 47.3217 45.8306C47.3217 47.3838 48.3687 48.6458 49.6585 48.6458ZM44.727 48.4988C45.9555 48.4988 46.9437 47.4601 46.9437 45.988C46.9431 44.5188 45.9514 43.7482 44.7323 43.737L41.5 44.2283V48.4988H44.727ZM34.2218 30.2528C35.6562 30.2528 36.8164 28.8529 36.8164 27.1261C36.8164 25.3992 35.6562 24 34.2218 24C32.7885 24 31.6265 25.3992 31.6265 27.1261C31.6265 28.8529 32.7885 30.2528 34.2218 30.2528ZM31.5722 40.3715L31.5489 40.3309L30.3729 37.0453L30.3712 43.5991H33.8857L34.6534 42.6191L32.5715 41.6574C32.078 41.4348 31.7274 40.9308 31.5722 40.3715ZM32.3172 40.0768C32.4309 40.3834 32.6415 40.6319 32.9063 40.746L36.9179 42.5302C37.0401 42.5948 37.1718 42.6297 37.3053 42.633C37.4388 42.6363 37.5715 42.608 37.6958 42.5496C37.8202 42.4912 37.9337 42.4038 38.0298 42.2927C38.126 42.1815 38.2029 42.0486 38.2561 41.9016C38.3647 41.6038 38.3707 41.2666 38.2727 40.9635C38.1748 40.6604 37.9809 40.4161 37.7334 40.284L34.0322 38.6069L32.8888 35.3164L33.6343 34.9832L34.6032 37.8026L37.4167 39.0542V35.6089L38.91 36.675L39.6543 41.1744C39.6972 41.3266 39.7648 41.4671 39.8532 41.5878C39.9416 41.7085 40.0491 41.807 40.1694 41.8776C40.2897 41.9481 40.4205 41.9894 40.5541 41.9989C40.6878 42.0084 40.8217 41.9861 40.9482 41.9331C41.2028 41.8245 41.4114 41.5997 41.5288 41.3076C41.6462 41.0155 41.6629 40.6797 41.5752 40.3729L40.7411 36.0394C40.6864 35.7995 40.5721 35.5854 40.4132 35.4256C39.9857 34.8572 37.8232 31.9558 37.6692 31.7619C37.4435 31.4903 36.9272 30.9997 35.9519 30.9997H32.4519C30.4627 30.9997 30.0801 33.4355 30.4867 34.6745L32.3172 40.0768ZM40.9167 44.299H25.1474C24.5734 44.299 24 44.6875 24 45.5422V51.9987H40.9167V44.299Z" fill="white"/>
<defs>
<linearGradient id="paint0_linear_132_2488" x1="-2.94194" y1="-14.2936" x2="48.2766" y2="-4.48024" gradientUnits="userSpaceOnUse">
<stop stop-color="#712EFF"/>
<stop offset="1" stop-color="#8559E2"/>
</linearGradient>
</defs>
</svg>
