<svg width="21" height="21" viewBox="0 0 21 21" fill="none" xmlns="http://www.w3.org/2000/svg">
<path d="M20.1704 7.62062L13.9717 6.71974L11.2007 1.10206C11.125 0.948251 11.0005 0.82374 10.8467 0.748056C10.4609 0.557626 9.99216 0.716318 9.79928 1.10206L7.02829 6.71974L0.829552 7.62062C0.658654 7.64503 0.502403 7.7256 0.382775 7.84767C0.23815 7.99632 0.158455 8.1963 0.161202 8.40368C0.163948 8.61106 0.248912 8.80886 0.397423 8.95363L4.88229 13.3262L3.82272 19.5005C3.79787 19.6441 3.81377 19.7919 3.8686 19.9269C3.92343 20.062 4.01501 20.1789 4.13294 20.2646C4.25088 20.3503 4.39046 20.4012 4.53585 20.4115C4.68125 20.4219 4.82663 20.3913 4.95553 20.3233L10.5 17.4082L16.0444 20.3233C16.1958 20.4038 16.3716 20.4307 16.54 20.4014C16.9648 20.3281 17.2505 19.9253 17.1772 19.5005L16.1177 13.3262L20.6025 8.95363C20.7246 8.834 20.8052 8.67775 20.8296 8.50685C20.8955 8.0796 20.5976 7.68409 20.1704 7.62062Z" fill="#FFC700"/>
</svg>
