<svg width="76" height="76" viewBox="0 0 76 76" fill="none" xmlns="http://www.w3.org/2000/svg">
<rect width="76" height="76" rx="38" fill="url(#paint0_linear_132_2540)"/>
<path d="M49.2125 35.9C49.0375 35.3545 48.5625 35 48 35H39.0125C38.4375 35 37.975 35.3545 37.7875 35.9L36 41.5045L36.0125 49.0182C36.0125 49.5364 36.4 50 36.875 50H37.65C38.125 50 38.5 49.4818 38.5 48.9636V47.2727H48.5V48.9636C48.5 49.4818 48.8875 50 49.3625 50H50.125C50.6 50 50.9875 49.5364 50.9875 49.0182L51 47.15V41.5045L49.2125 35.9ZM39.0125 36.3636H48L49.2875 40.4545H37.725L39.0125 36.3636ZM38.5 44.5455C37.8125 44.5455 37.25 43.9318 37.25 43.1818C37.25 42.4318 37.8125 41.8182 38.5 41.8182C39.1875 41.8182 39.75 42.4318 39.75 43.1818C39.75 43.9318 39.1875 44.5455 38.5 44.5455ZM48.5 44.5455C47.8125 44.5455 47.25 43.9318 47.25 43.1818C47.25 42.4318 47.8125 41.8182 48.5 41.8182C49.1875 41.8182 49.75 42.4318 49.75 43.1818C49.75 43.9318 49.1875 44.5455 48.5 44.5455Z" fill="white"/>
<path d="M40.6923 33.6667H42V26H31.5385V32.3889H25V49H26.3077V33.6667H32.8462V27.2778H40.6923V33.6667Z" fill="white"/>
<path d="M29 35.875H31.5714V38.5H29V35.875ZM35.4286 28H38V30.625H35.4286V28ZM29 41.125H31.5714V43.75H29V41.125ZM29 46.375H31.5714V49H29V46.375Z" fill="white"/>
<defs>
<linearGradient id="paint0_linear_132_2540" x1="-2.94194" y1="-14.2936" x2="48.2766" y2="-4.48024" gradientUnits="userSpaceOnUse">
<stop stop-color="#712EFF"/>
<stop offset="1" stop-color="#8559E2"/>
</linearGradient>
</defs>
</svg>
