<svg width="25" height="25" viewBox="0 0 25 25" fill="none" xmlns="http://www.w3.org/2000/svg">
<path d="M23.8281 18.75H1.17188C1.06827 18.75 0.968918 18.7088 0.895661 18.6356C0.822405 18.5623 0.78125 18.463 0.78125 18.3594V4.29688C0.78125 4.19327 0.822405 4.09392 0.895661 4.02066C0.968918 3.94741 1.06827 3.90625 1.17188 3.90625H23.8281C23.9317 3.90625 24.0311 3.94741 24.1043 4.02066C24.1776 4.09392 24.2188 4.19327 24.2188 4.29688V18.3594C24.2188 18.463 24.1776 18.5623 24.1043 18.6356C24.0311 18.7088 23.9317 18.75 23.8281 18.75Z" fill="white"/>
<path d="M19.3359 19.5312H5.66406C5.55619 19.5312 5.46875 19.6187 5.46875 19.7266V20.8984C5.46875 21.0063 5.55619 21.0938 5.66406 21.0938H19.3359C19.4438 21.0938 19.5312 21.0063 19.5312 20.8984V19.7266C19.5312 19.6187 19.4438 19.5312 19.3359 19.5312Z" fill="white"/>
</svg>
