<svg width="14" height="14" viewBox="0 0 14 14" fill="none" xmlns="http://www.w3.org/2000/svg">
<path d="M11.1674 13.6666H2.00077C1.55875 13.6666 1.13482 13.491 0.822262 13.1784C0.509701 12.8659 0.334106 12.4419 0.334106 11.9999V2.83325C0.334106 2.39122 0.509701 1.9673 0.822262 1.65474C1.13482 1.34218 1.55875 1.16659 2.00077 1.16659H5.33411V2.83325H2.00077V11.9999H11.1674V8.66658H12.8341V11.9999C12.8341 12.4419 12.6585 12.8659 12.346 13.1784C12.0334 13.491 11.6095 13.6666 11.1674 13.6666ZM6.75077 8.42242L5.57577 7.24408L10.8199 1.99992H7.83411V0.333252H13.6674V6.16658H12.0008V3.17908L6.75077 8.42242V8.42242Z" fill="white"/>
</svg>
