<svg width="14" height="21" viewBox="0 0 14 21" fill="none" xmlns="http://www.w3.org/2000/svg">
<path d="M8.94584 4.02548C10.0224 4.02548 10.8593 3.16154 10.8593 2.09619C10.8593 1.03084 10.0224 0.166504 8.94584 0.166504C7.86928 0.166504 6.96334 1.03044 6.96334 2.09579C6.96334 3.16114 7.86928 4.02548 8.94584 4.02548ZM3.49031 15.6723C3.35828 15.999 3.16539 16.2955 2.91141 16.5363L0.880564 18.5512C0.626699 18.8023 0.499786 19.1325 0.499786 19.463C0.499908 20.4724 1.43144 20.7498 1.7995 20.7498C2.13206 20.7498 2.46453 20.6242 2.71844 20.3729L5.12994 17.9817C5.37877 17.7405 5.57153 17.4442 5.70884 17.1178L6.25728 15.7614C4.00828 13.34 4.68347 14.0834 4.328 13.6009L3.49031 15.6723ZM13.4999 11.1778C13.4999 10.7046 13.2402 10.2471 12.7861 10.0224L11.842 9.54479L11.4443 8.36366C11.2187 7.68826 10.102 5.31274 7.26397 5.31274C5.81853 5.31274 5.01172 5.7236 3.50291 6.32824C2.62703 6.67518 1.91122 7.33851 1.48466 8.18275L1.21572 8.72949C1.12269 8.91442 1.07841 9.11141 1.07841 9.30438C1.07841 9.99786 1.63822 10.5896 2.36338 10.5896C2.83463 10.5896 3.28881 10.3301 3.51591 9.88087L3.79004 9.33332C3.93223 9.05191 4.16574 8.8308 4.46036 8.71502L5.54553 8.27923L4.93209 10.7195C4.87928 10.9245 4.85491 11.1376 4.85491 11.3426C4.85491 11.9774 5.09402 12.6005 5.53741 13.0809L7.96922 15.7146C8.26375 16.0311 8.47175 16.4133 8.57331 16.8249L9.31959 19.7753C9.46621 20.3563 9.99762 20.7482 10.5806 20.7482C11.3651 20.7482 11.881 20.0998 11.881 19.4598C11.881 19.358 11.8686 19.2549 11.8427 19.1521L10.9388 15.5738C10.8321 15.1565 10.624 14.7693 10.3347 14.4578L8.48666 12.4573L9.18216 9.69828L9.40551 10.3616C9.62387 11.0101 10.086 11.5427 10.695 11.8495L11.6391 12.3218C11.817 12.411 12.0137 12.4575 12.2131 12.4575C12.8824 12.4602 13.4999 11.9255 13.4999 11.1778Z" fill="white"/>
</svg>
